<?xml version="1.0" standalone="no"?>
<!DOCTYPE svg PUBLIC "-//W3C//DTD SVG 20010904//EN"
 "http://www.w3.org/TR/2001/REC-SVG-20010904/DTD/svg10.dtd">
<svg version="1.0" xmlns="http://www.w3.org/2000/svg"
 width="757.000000pt" height="757.000000pt" viewBox="0 0 757.000000 757.000000"
 preserveAspectRatio="xMidYMid meet">
<metadata>
Created by potrace 1.11, written by Peter Selinger 2001-2013
</metadata>
<g transform="translate(0.000000,757.000000) scale(0.100000,-0.100000)"
fill="#000000" stroke="none">
<path d="M922 7253 c-29 -6 -56 -46 -47 -73 13 -41 38 -46 233 -40 179 5 184
6 203 29 19 24 18 51 -3 79 -8 9 -56 12 -187 11 -97 -1 -186 -4 -199 -6z"/>
<path d="M1557 7242 c-23 -25 -21 -55 4 -78 19 -17 40 -19 198 -22 201 -3 224
3 229 56 6 60 0 62 -218 62 -178 0 -198 -2 -213 -18z"/>
<path d="M2227 7242 c-36 -39 -13 -86 47 -98 19 -3 107 -4 196 -2 146 3 163 5
176 22 18 26 18 61 -2 80 -13 13 -46 16 -208 16 -174 0 -195 -2 -209 -18z"/>
<path d="M2896 7244 c-20 -19 -20 -54 -2 -80 13 -17 30 -19 176 -22 220 -5
260 5 260 63 0 51 -15 55 -225 55 -163 0 -196 -3 -209 -16z"/>
<path d="M3560 7245 c-7 -8 -10 -31 -8 -50 4 -35 4 -35 -37 -35 -38 0 -46 -6
-166 -127 -676 -685 -1136 -1431 -1324 -2148 -145 -550 -116 -1092 79 -1498
200 -416 549 -692 1011 -798 118 -26 383 -37 522 -19 133 16 339 70 480 125
184 72 454 227 627 360 125 96 120 92 113 70 -3 -11 -45 -166 -92 -344 -140
-525 -244 -859 -362 -1156 -71 -179 -223 -494 -295 -610 -154 -247 -469 -564
-582 -586 -22 -5 -98 -8 -168 -9 -120 0 -128 -1 -142 -22 -23 -32 -20 -54 10
-77 25 -19 40 -21 203 -21 208 0 225 6 219 71 l-4 39 118 0 117 0 -5 -33 c-4
-20 0 -40 9 -52 14 -19 29 -20 199 -23 207 -3 231 3 236 54 4 45 -19 64 -79
64 -27 0 -49 2 -49 4 0 3 23 36 52 73 198 261 397 641 561 1068 108 284 199
574 437 1405 283 984 304 1052 373 1225 94 236 151 489 128 571 -24 90 -105
114 -212 61 -69 -34 -152 -107 -183 -160 -13 -23 -66 -165 -117 -316 -86 -255
-97 -280 -160 -375 -154 -234 -359 -421 -631 -580 -523 -303 -1122 -321 -1528
-46 -311 211 -509 612 -526 1065 -23 589 273 1247 870 1934 208 239 510 526
764 726 l102 80 -65 3 -64 3 6 30 c4 21 0 35 -12 49 -17 19 -32 20 -215 20
-163 0 -200 -3 -210 -15z"/>
<path d="M4230 7245 c-18 -21 -16 -64 4 -83 14 -14 45 -18 189 -20 186 -3 220
3 239 42 9 20 8 30 -6 51 l-16 25 -199 0 c-164 0 -201 -3 -211 -15z"/>
<path d="M4894 7235 c-21 -32 -7 -71 32 -85 14 -6 97 -10 184 -10 87 0 170 4
184 10 39 14 53 53 32 85 l-16 25 -200 0 -200 0 -16 -25z"/>
<path d="M5564 7235 c-21 -32 -7 -71 32 -85 14 -6 103 -10 199 -10 144 0 176
3 189 16 19 18 21 75 4 92 -9 9 -69 12 -210 12 l-198 0 -16 -25z"/>
<path d="M6235 7240 c-12 -14 -16 -28 -12 -50 l7 -30 -83 0 -83 0 -13 -77
c-67 -409 -466 -1055 -890 -1440 -353 -321 -902 -509 -1065 -365 -59 53 -71
170 -32 323 35 138 38 163 25 213 -22 87 -94 121 -193 92 -68 -20 -173 -112
-205 -182 -56 -119 -101 -353 -101 -530 0 -383 189 -571 555 -551 373 20 769
218 1172 588 183 167 420 439 579 664 246 348 484 820 573 1139 l28 101 70 5
c79 6 103 20 103 60 0 55 -18 60 -227 60 -176 0 -191 -1 -208 -20z"/>
<path d="M6886 7134 c-9 -8 -16 -28 -16 -44 0 -23 12 -38 60 -76 54 -42 79
-70 164 -186 20 -29 34 -38 56 -38 35 0 65 38 55 69 -11 34 -81 135 -127 182
-95 98 -158 128 -192 93z"/>
<path d="M536 7046 c-75 -74 -156 -206 -156 -252 0 -55 59 -85 92 -46 8 9 30
46 48 80 19 35 64 96 102 135 37 39 68 79 68 89 0 38 -19 58 -56 58 -29 0 -44
-10 -98 -64z"/>
<path d="M7182 6568 c-9 -9 -12 -69 -12 -210 l0 -198 26 -17 c24 -15 29 -15
53 -2 l26 15 3 198 c2 138 -1 203 -9 212 -14 17 -71 18 -87 2z"/>
<path d="M344 6506 c-18 -13 -19 -28 -19 -211 0 -183 1 -198 19 -211 27 -19
60 -18 79 4 25 27 25 392 1 416 -19 20 -54 20 -80 2z"/>
<path d="M7191 5903 c-21 -17 -22 -24 -19 -218 l3 -199 26 -15 c24 -13 29 -13
53 2 l26 17 0 200 c0 194 -1 199 -22 214 -29 20 -41 20 -67 -1z"/>
<path d="M339 5833 c-11 -12 -15 -62 -17 -197 -3 -173 -2 -183 18 -209 25 -31
60 -35 83 -9 15 16 17 46 17 206 0 110 -4 195 -10 207 -13 24 -72 26 -91 2z"/>
<path d="M7192 5234 c-21 -15 -22 -20 -22 -213 0 -215 2 -223 55 -223 53 0 55
8 55 223 0 193 -1 198 -22 213 -12 9 -27 16 -33 16 -6 0 -21 -7 -33 -16z"/>
<path d="M363 5179 c-38 -14 -43 -40 -43 -224 0 -173 0 -176 25 -200 28 -29
42 -31 73 -9 21 15 22 20 22 213 0 147 -3 201 -12 208 -22 17 -42 21 -65 12z"/>
<path d="M7187 4562 c-15 -16 -17 -46 -17 -213 0 -212 2 -219 55 -219 53 0 55
7 55 220 0 178 -2 198 -18 213 -24 22 -55 21 -75 -1z"/>
<path d="M345 4495 c-25 -24 -25 -26 -25 -205 0 -180 0 -181 25 -206 19 -19
31 -23 48 -18 47 14 47 16 47 225 0 193 -1 198 -22 213 -31 22 -45 20 -73 -9z"/>
<path d="M7186 3894 c-13 -13 -16 -46 -16 -209 0 -210 4 -225 55 -225 51 0 55
15 55 225 0 210 -4 225 -55 225 -13 0 -31 -7 -39 -16z"/>
<path d="M341 3824 c-19 -25 -21 -40 -21 -198 0 -197 6 -219 60 -224 57 -6 60
7 60 224 0 188 -1 193 -22 208 -32 23 -54 20 -77 -10z"/>
<path d="M7188 3229 c-16 -9 -18 -30 -18 -209 0 -214 4 -230 54 -230 51 0 56
20 56 233 0 184 -1 197 -19 207 -25 13 -51 12 -73 -1z"/>
<path d="M354 3172 c-28 -19 -34 -56 -34 -219 0 -190 7 -216 56 -221 60 -6 64
7 64 222 0 174 -2 195 -18 209 -19 18 -49 22 -68 9z"/>
<path d="M7182 2558 c-9 -9 -12 -69 -12 -208 0 -178 2 -198 18 -213 24 -22 55
-21 75 1 15 16 17 46 17 213 0 212 -2 219 -55 219 -17 0 -36 -5 -43 -12z"/>
<path d="M344 2496 c-18 -13 -19 -28 -19 -211 0 -183 1 -198 19 -211 27 -19
60 -18 79 4 25 27 25 392 1 416 -19 20 -54 20 -80 2z"/>
<path d="M3170 2324 c-14 -2 -56 -9 -95 -15 -157 -26 -351 -109 -528 -227
-249 -166 -478 -431 -612 -707 -113 -233 -140 -358 -139 -630 0 -245 14 -328
56 -333 23 -3 26 -6 19 -25 -11 -28 2 -63 28 -76 12 -7 90 -11 196 -11 173 0
176 0 200 25 28 27 30 37 15 66 -10 18 -7 19 86 19 l96 0 -53 58 c-106 116
-171 265 -188 431 -31 300 83 538 328 685 182 109 335 151 525 144 178 -7 283
-48 420 -168 65 -56 88 -63 150 -50 142 30 282 210 294 376 6 93 -10 127 -96
200 -178 152 -365 228 -582 238 -52 3 -106 3 -120 0z"/>
<path d="M7191 1893 c-21 -18 -22 -23 -19 -218 l3 -199 26 -15 c24 -13 29 -13
53 2 l26 17 0 199 c0 147 -3 201 -12 209 -27 21 -55 22 -77 5z"/>
<path d="M339 1823 c-10 -12 -15 -60 -17 -186 -2 -94 -1 -180 2 -193 13 -52
67 -71 99 -36 25 27 25 392 1 416 -20 21 -68 20 -85 -1z"/>
<path d="M7194 1226 c-19 -13 -22 -29 -28 -153 -7 -150 -18 -206 -61 -301 -26
-59 -27 -63 -11 -87 54 -82 119 -15 167 174 14 55 19 109 19 212 0 131 -1 139
-22 153 -28 20 -38 20 -64 2z"/>
<path d="M339 1153 c-33 -40 -4 -316 41 -391 23 -37 66 -44 93 -14 21 24 21
33 -3 112 -13 39 -23 107 -27 175 -3 60 -10 116 -16 123 -14 18 -72 15 -88 -5z"/>
<path d="M587 563 c-38 -43 -23 -77 55 -130 114 -76 244 -124 302 -109 30 7
44 46 28 80 -7 16 -27 27 -72 39 -74 21 -148 57 -211 103 -52 38 -79 42 -102
17z"/>
<path d="M6860 505 c-73 -39 -147 -65 -217 -75 -37 -5 -73 -16 -81 -24 -18
-17 -19 -61 -2 -81 29 -35 186 -8 318 56 90 44 112 71 91 112 -24 44 -45 46
-109 12z"/>
<path d="M1412 420 c-211 -5 -215 -7 -210 -65 5 -48 32 -55 220 -55 180 0 214
7 225 47 6 26 -12 70 -31 75 -6 2 -98 1 -204 -2z"/>
<path d="M2546 398 c-22 -31 -20 -45 9 -73 24 -25 26 -25 205 -25 179 0 181 0
205 25 29 28 31 42 9 73 -15 21 -20 22 -214 22 -194 0 -199 -1 -214 -22z"/>
<path d="M4557 402 c-21 -23 -22 -52 -3 -78 13 -18 28 -19 211 -19 183 0 198
1 211 19 19 27 18 60 -4 79 -16 15 -46 17 -209 17 -171 0 -192 -2 -206 -18z"/>
<path d="M5225 404 c-10 -10 -15 -29 -13 -48 5 -51 29 -57 236 -54 169 3 185
5 198 22 19 27 18 60 -4 79 -16 15 -46 17 -210 17 -163 0 -193 -2 -207 -16z"/>
<path d="M5898 409 c-12 -6 -18 -22 -18 -44 0 -59 19 -65 221 -65 163 0 178 2
203 21 30 23 33 45 10 77 -15 21 -20 22 -207 22 -112 0 -199 -5 -209 -11z"/>
</g>
</svg>
